<svg xmlns="http://www.w3.org/2000/svg" viewBox="0 0 24 24" width="24" height="24" fill="#ffffff">
  <path d="M12 2.2c3.18 0 3.582.012 4.85.07 1.366.062 2.634.344 3.61 1.318.976.976 1.257 2.244 1.318 3.61.058 1.268.07 1.67.07 4.85s-.012 3.582-.07 4.85c-.062 1.366-.344 2.634-1.318 3.61-.976.976-2.244 1.257-3.61 1.318-1.268.058-1.67.07-4.85.07s-3.582-.012-4.85-.07c-1.366-.062-2.634-.344-3.61-1.318-.976-.976-1.257-2.244-1.318-3.61-.058-1.268-.07-1.67-.07-4.85s.012-3.582.07-4.85c.062-1.366.344-2.634 1.318-3.61C5.516 2.544 6.784 2.263 8.15 2.2 9.418 2.142 9.82 2.13 12 2.13zm0 1.7c-3.154 0-3.533.013-4.778.07-1.036.048-1.787.292-2.322.827-.535.535-.779 1.286-.827 2.322-.057 1.245-.07 1.624-.07 4.778s.013 3.533.07 4.778c.048 1.036.292 1.787.827 2.322.535.535 1.286.779 2.322.827 1.245.057 1.624.07 4.778.07s3.533-.013 4.778-.07c1.036-.048 1.787-.292 2.322-.827.535-.535.779-1.286.827-2.322.057-1.245.07-1.624.07-4.778s-.013-3.533-.07-4.778c-.048-1.036-.292-1.787-.827-2.322-.535-.535-1.286-.779-2.322-.827-1.245-.057-1.624-.07-4.778-.07zM12 6.34a5.66 5.66 0 110 11.32 5.66 5.66 0 010-11.32zm0 1.7a3.96 3.96 0 100 7.92 3.96 3.96 0 000-7.92zm6.545-1.1a1.3 1.3 0 110 2.6 1.3 1.3 0 010-2.6z"/>
</svg>
