<svg xmlns="http://www.w3.org/2000/svg" viewBox="0 0 24 24" width="24" height="24" fill="#ffffff">
  <path d="M22 5.92a8.08 8.08 0 01-2.36.66 4.08 4.08 0 001.8-2.25 8.19 8.19 0 01-2.6.99A4.06 4.06 0 0016.18 4c-2.25 0-4.08 1.83-4.08 4.08 0 .32.04.64.11.94a11.57 11.57 0 01-8.4-4.26 4.06 4.06 0 001.25 5.44 4.06 4.06 0 01-1.85-.51v.05a4.08 4.08 0 003.27 4 4.1 4.1 0 01-1.83.07 4.08 4.08 0 003.81 2.83A8.15 8.15 0 012 19.17a11.5 11.5 0 006.26 1.83c7.5 0 11.61-6.22 11.61-11.61 0-.18-.01-.35-.02-.53a8.28 8.28 0 002.04-2.1z"/>
</svg>
